<svg width="304" height="50" viewBox="0 0 304 50" fill="none" xmlns="http://www.w3.org/2000/svg">
<path d="M84.3 25.238V35.498C81.72 37.358 78.72 38.288 75.3 38.288C73.2 38.288 71.298 37.964 69.594 37.316C67.902 36.656 66.456 35.744 65.256 34.58C64.056 33.404 63.132 32.006 62.484 30.386C61.836 28.766 61.512 26.984 61.512 25.04C61.512 23.084 61.824 21.296 62.448 19.676C63.072 18.044 63.966 16.646 65.13 15.482C66.294 14.306 67.698 13.4 69.342 12.764C70.986 12.116 72.834 11.792 74.886 11.792C75.93 11.792 76.896 11.876 77.784 12.044C78.684 12.2 79.518 12.422 80.286 12.71C81.054 12.998 81.762 13.346 82.41 13.754C83.058 14.162 83.652 14.618 84.192 15.122L82.986 17.048C82.794 17.348 82.548 17.534 82.248 17.606C81.948 17.678 81.624 17.606 81.276 17.39C80.928 17.186 80.556 16.97 80.16 16.742C79.776 16.514 79.332 16.304 78.828 16.112C78.324 15.908 77.742 15.746 77.082 15.626C76.422 15.494 75.642 15.428 74.742 15.428C73.374 15.428 72.138 15.656 71.034 16.112C69.942 16.556 69.006 17.198 68.226 18.038C67.446 18.866 66.846 19.874 66.426 21.062C66.006 22.25 65.796 23.576 65.796 25.04C65.796 26.588 66.018 27.974 66.462 29.198C66.906 30.41 67.536 31.442 68.352 32.294C69.168 33.134 70.152 33.776 71.304 34.22C72.468 34.664 73.764 34.886 75.192 34.886C76.26 34.886 77.208 34.772 78.036 34.544C78.876 34.316 79.698 33.998 80.502 33.59V28.442H76.884C76.608 28.442 76.392 28.37 76.236 28.226C76.08 28.07 76.002 27.872 76.002 27.632V25.238H84.3ZM100.38 26.75C100.38 26.102 100.284 25.502 100.092 24.95C99.9125 24.386 99.6425 23.9 99.2825 23.492C98.9225 23.072 98.4725 22.748 97.9325 22.52C97.4045 22.28 96.7925 22.16 96.0965 22.16C94.6925 22.16 93.5885 22.562 92.7845 23.366C91.9805 24.17 91.4705 25.298 91.2545 26.75H100.38ZM91.1465 29.126C91.1945 30.17 91.3565 31.076 91.6325 31.844C91.9085 32.6 92.2745 33.23 92.7305 33.734C93.1985 34.238 93.7505 34.616 94.3865 34.868C95.0345 35.108 95.7545 35.228 96.5465 35.228C97.3025 35.228 97.9565 35.144 98.5085 34.976C99.0605 34.796 99.5405 34.604 99.9485 34.4C100.356 34.184 100.704 33.992 100.992 33.824C101.28 33.644 101.544 33.554 101.784 33.554C102.096 33.554 102.336 33.674 102.504 33.914L103.602 35.336C103.146 35.876 102.63 36.332 102.054 36.704C101.478 37.076 100.866 37.382 100.218 37.622C99.5705 37.85 98.9045 38.012 98.2205 38.108C97.5365 38.216 96.8705 38.27 96.2225 38.27C94.9505 38.27 93.7685 38.06 92.6765 37.64C91.5965 37.208 90.6545 36.578 89.8505 35.75C89.0585 34.922 88.4345 33.896 87.9785 32.672C87.5345 31.448 87.3125 30.038 87.3125 28.442C87.3125 27.17 87.5105 25.982 87.9065 24.878C88.3145 23.774 88.8905 22.814 89.6345 21.998C90.3905 21.182 91.3025 20.54 92.3705 20.072C93.4505 19.592 94.6685 19.352 96.0245 19.352C97.1525 19.352 98.1965 19.538 99.1565 19.91C100.116 20.27 100.944 20.804 101.64 21.512C102.336 22.22 102.876 23.09 103.26 24.122C103.656 25.142 103.854 26.306 103.854 27.614C103.854 28.214 103.788 28.616 103.656 28.82C103.524 29.024 103.284 29.126 102.936 29.126H91.1465ZM113.174 38.288C111.65 38.288 110.474 37.862 109.646 37.01C108.83 36.146 108.422 34.934 108.422 33.374V22.682H106.406C106.19 22.682 106.004 22.616 105.848 22.484C105.692 22.34 105.614 22.13 105.614 21.854V20.288L108.584 19.856L109.43 14.546C109.49 14.342 109.592 14.18 109.736 14.06C109.88 13.928 110.072 13.862 110.312 13.862H112.292V19.892H117.386V22.682H112.292V33.104C112.292 33.764 112.454 34.268 112.778 34.616C113.102 34.964 113.534 35.138 114.074 35.138C114.374 35.138 114.632 35.102 114.848 35.03C115.064 34.946 115.25 34.862 115.406 34.778C115.562 34.682 115.694 34.598 115.802 34.526C115.922 34.442 116.036 34.4 116.144 34.4C116.36 34.4 116.534 34.52 116.666 34.76L117.818 36.65C117.218 37.178 116.51 37.586 115.694 37.874C114.878 38.15 114.038 38.288 113.174 38.288ZM120.22 25.526H129.346V28.802H120.22V25.526ZM137.863 19.64V38H133.993V19.64H137.863ZM138.511 14.096C138.511 14.444 138.439 14.774 138.295 15.086C138.163 15.398 137.977 15.674 137.737 15.914C137.497 16.142 137.215 16.328 136.891 16.472C136.579 16.604 136.243 16.67 135.883 16.67C135.535 16.67 135.205 16.604 134.893 16.472C134.593 16.328 134.329 16.142 134.101 15.914C133.873 15.674 133.687 15.398 133.543 15.086C133.411 14.774 133.345 14.444 133.345 14.096C133.345 13.736 133.411 13.4 133.543 13.088C133.687 12.776 133.873 12.506 134.101 12.278C134.329 12.038 134.593 11.852 134.893 11.72C135.205 11.576 135.535 11.504 135.883 11.504C136.243 11.504 136.579 11.576 136.891 11.72C137.215 11.852 137.497 12.038 137.737 12.278C137.977 12.506 138.163 12.776 138.295 13.088C138.439 13.4 138.511 13.736 138.511 14.096ZM148.611 38.288C147.087 38.288 145.911 37.862 145.083 37.01C144.267 36.146 143.859 34.934 143.859 33.374V22.682H141.843C141.627 22.682 141.441 22.616 141.285 22.484C141.129 22.34 141.051 22.13 141.051 21.854V20.288L144.021 19.856L144.867 14.546C144.927 14.342 145.029 14.18 145.173 14.06C145.317 13.928 145.509 13.862 145.749 13.862H147.729V19.892H152.823V22.682H147.729V33.104C147.729 33.764 147.891 34.268 148.215 34.616C148.539 34.964 148.971 35.138 149.511 35.138C149.811 35.138 150.069 35.102 150.285 35.03C150.501 34.946 150.687 34.862 150.843 34.778C150.999 34.682 151.131 34.598 151.239 34.526C151.359 34.442 151.473 34.4 151.581 34.4C151.797 34.4 151.971 34.52 152.103 34.76L153.255 36.65C152.655 37.178 151.947 37.586 151.131 37.874C150.315 38.15 149.475 38.288 148.611 38.288ZM155.658 25.526H164.784V28.802H155.658V25.526ZM175.154 38.288C173.63 38.288 172.454 37.862 171.626 37.01C170.81 36.146 170.402 34.934 170.402 33.374V22.682H168.386C168.17 22.682 167.984 22.616 167.828 22.484C167.672 22.34 167.594 22.13 167.594 21.854V20.288L170.564 19.856L171.41 14.546C171.47 14.342 171.572 14.18 171.716 14.06C171.86 13.928 172.052 13.862 172.292 13.862H174.272V19.892H179.366V22.682H174.272V33.104C174.272 33.764 174.434 34.268 174.758 34.616C175.082 34.964 175.514 35.138 176.054 35.138C176.354 35.138 176.612 35.102 176.828 35.03C177.044 34.946 177.23 34.862 177.386 34.778C177.542 34.682 177.674 34.598 177.782 34.526C177.902 34.442 178.016 34.4 178.124 34.4C178.34 34.4 178.514 34.52 178.646 34.76L179.798 36.65C179.198 37.178 178.49 37.586 177.674 37.874C176.858 38.15 176.018 38.288 175.154 38.288ZM190.214 19.352C191.57 19.352 192.794 19.574 193.886 20.018C194.99 20.462 195.926 21.092 196.694 21.908C197.474 22.724 198.074 23.714 198.494 24.878C198.914 26.042 199.124 27.35 199.124 28.802C199.124 30.254 198.914 31.562 198.494 32.726C198.074 33.89 197.474 34.886 196.694 35.714C195.926 36.53 194.99 37.16 193.886 37.604C192.794 38.048 191.57 38.27 190.214 38.27C188.846 38.27 187.61 38.048 186.506 37.604C185.414 37.16 184.478 36.53 183.698 35.714C182.918 34.886 182.318 33.89 181.898 32.726C181.478 31.562 181.268 30.254 181.268 28.802C181.268 27.35 181.478 26.042 181.898 24.878C182.318 23.714 182.918 22.724 183.698 21.908C184.478 21.092 185.414 20.462 186.506 20.018C187.61 19.574 188.846 19.352 190.214 19.352ZM190.214 35.246C191.87 35.246 193.1 34.694 193.904 33.59C194.72 32.474 195.128 30.884 195.128 28.82C195.128 26.756 194.72 25.166 193.904 24.05C193.1 22.922 191.87 22.358 190.214 22.358C188.534 22.358 187.286 22.922 186.47 24.05C185.654 25.166 185.246 26.756 185.246 28.82C185.246 30.884 185.654 32.474 186.47 33.59C187.286 34.694 188.534 35.246 190.214 35.246ZM209.254 28.658C210.454 28.658 211.354 28.352 211.954 27.74C212.554 27.128 212.854 26.33 212.854 25.346C212.854 24.338 212.554 23.54 211.954 22.952C211.354 22.364 210.454 22.07 209.254 22.07C208.066 22.07 207.166 22.364 206.554 22.952C205.954 23.54 205.654 24.338 205.654 25.346C205.654 25.826 205.732 26.27 205.888 26.678C206.044 27.086 206.272 27.44 206.572 27.74C206.872 28.028 207.244 28.256 207.688 28.424C208.144 28.58 208.666 28.658 209.254 28.658ZM214.636 38.9C214.636 38.492 214.516 38.168 214.276 37.928C214.048 37.676 213.736 37.484 213.34 37.352C212.944 37.208 212.482 37.106 211.954 37.046C211.426 36.974 210.862 36.926 210.262 36.902C209.674 36.866 209.068 36.836 208.444 36.812C207.832 36.776 207.238 36.716 206.662 36.632C206.086 36.932 205.612 37.292 205.24 37.712C204.88 38.132 204.7 38.618 204.7 39.17C204.7 39.53 204.79 39.866 204.97 40.178C205.162 40.49 205.45 40.76 205.834 40.988C206.23 41.216 206.728 41.396 207.328 41.528C207.94 41.66 208.672 41.726 209.524 41.726C211.228 41.726 212.506 41.462 213.358 40.934C214.21 40.406 214.636 39.728 214.636 38.9ZM218.524 20.306V21.746C218.524 22.226 218.236 22.52 217.66 22.628L215.824 22.934C216.136 23.63 216.292 24.404 216.292 25.256C216.292 26.156 216.112 26.972 215.752 27.704C215.404 28.436 214.918 29.06 214.294 29.576C213.67 30.092 212.926 30.488 212.062 30.764C211.198 31.04 210.262 31.178 209.254 31.178C208.87 31.178 208.492 31.16 208.12 31.124C207.76 31.076 207.406 31.016 207.058 30.944C206.71 31.148 206.452 31.364 206.284 31.592C206.116 31.82 206.032 32.054 206.032 32.294C206.032 32.69 206.206 32.984 206.554 33.176C206.902 33.368 207.358 33.506 207.922 33.59C208.498 33.674 209.152 33.728 209.884 33.752C210.616 33.776 211.36 33.818 212.116 33.878C212.872 33.938 213.616 34.04 214.348 34.184C215.08 34.316 215.728 34.544 216.292 34.868C216.868 35.18 217.33 35.606 217.678 36.146C218.026 36.686 218.2 37.388 218.2 38.252C218.2 39.044 218.002 39.818 217.606 40.574C217.21 41.33 216.634 42.002 215.878 42.59C215.134 43.178 214.222 43.646 213.142 43.994C212.062 44.354 210.832 44.534 209.452 44.534C208.084 44.534 206.89 44.402 205.87 44.138C204.862 43.874 204.016 43.514 203.332 43.058C202.66 42.614 202.156 42.098 201.82 41.51C201.496 40.922 201.334 40.31 201.334 39.674C201.334 38.81 201.604 38.072 202.144 37.46C202.696 36.848 203.44 36.368 204.376 36.02C203.872 35.78 203.464 35.45 203.152 35.03C202.852 34.61 202.702 34.058 202.702 33.374C202.702 32.834 202.9 32.27 203.296 31.682C203.692 31.094 204.286 30.596 205.078 30.188C204.166 29.684 203.446 29.018 202.918 28.19C202.39 27.35 202.126 26.372 202.126 25.256C202.126 24.344 202.3 23.522 202.648 22.79C203.008 22.058 203.506 21.434 204.142 20.918C204.778 20.402 205.528 20.006 206.392 19.73C207.268 19.454 208.222 19.316 209.254 19.316C210.838 19.316 212.218 19.646 213.394 20.306H218.524ZM233.306 26.75C233.306 26.102 233.21 25.502 233.018 24.95C232.838 24.386 232.568 23.9 232.208 23.492C231.848 23.072 231.398 22.748 230.858 22.52C230.33 22.28 229.718 22.16 229.022 22.16C227.618 22.16 226.514 22.562 225.71 23.366C224.906 24.17 224.396 25.298 224.18 26.75H233.306ZM224.072 29.126C224.12 30.17 224.282 31.076 224.558 31.844C224.834 32.6 225.2 33.23 225.656 33.734C226.124 34.238 226.676 34.616 227.312 34.868C227.96 35.108 228.68 35.228 229.472 35.228C230.228 35.228 230.882 35.144 231.434 34.976C231.986 34.796 232.466 34.604 232.874 34.4C233.282 34.184 233.63 33.992 233.918 33.824C234.206 33.644 234.47 33.554 234.71 33.554C235.022 33.554 235.262 33.674 235.43 33.914L236.528 35.336C236.072 35.876 235.556 36.332 234.98 36.704C234.404 37.076 233.792 37.382 233.144 37.622C232.496 37.85 231.83 38.012 231.146 38.108C230.462 38.216 229.796 38.27 229.148 38.27C227.876 38.27 226.694 38.06 225.602 37.64C224.522 37.208 223.58 36.578 222.776 35.75C221.984 34.922 221.36 33.896 220.904 32.672C220.46 31.448 220.238 30.038 220.238 28.442C220.238 27.17 220.436 25.982 220.832 24.878C221.24 23.774 221.816 22.814 222.56 21.998C223.316 21.182 224.228 20.54 225.296 20.072C226.376 19.592 227.594 19.352 228.95 19.352C230.078 19.352 231.122 19.538 232.082 19.91C233.042 20.27 233.87 20.804 234.566 21.512C235.262 22.22 235.802 23.09 236.186 24.122C236.582 25.142 236.78 26.306 236.78 27.614C236.78 28.214 236.714 28.616 236.582 28.82C236.45 29.024 236.21 29.126 235.862 29.126H224.072ZM246.099 38.288C244.575 38.288 243.399 37.862 242.571 37.01C241.755 36.146 241.347 34.934 241.347 33.374V22.682H239.331C239.115 22.682 238.929 22.616 238.773 22.484C238.617 22.34 238.539 22.13 238.539 21.854V20.288L241.509 19.856L242.355 14.546C242.415 14.342 242.517 14.18 242.661 14.06C242.805 13.928 242.997 13.862 243.237 13.862H245.217V19.892H250.311V22.682H245.217V33.104C245.217 33.764 245.379 34.268 245.703 34.616C246.027 34.964 246.459 35.138 246.999 35.138C247.299 35.138 247.557 35.102 247.773 35.03C247.989 34.946 248.175 34.862 248.331 34.778C248.487 34.682 248.619 34.598 248.727 34.526C248.847 34.442 248.961 34.4 249.069 34.4C249.285 34.4 249.459 34.52 249.591 34.76L250.743 36.65C250.143 37.178 249.435 37.586 248.619 37.874C247.803 38.15 246.963 38.288 246.099 38.288ZM257.232 21.818C257.988 21.074 258.816 20.48 259.716 20.036C260.616 19.58 261.666 19.352 262.866 19.352C263.874 19.352 264.756 19.52 265.512 19.856C266.28 20.192 266.922 20.666 267.438 21.278C267.966 21.89 268.362 22.628 268.626 23.492C268.89 24.344 269.022 25.286 269.022 26.318V38H265.17V26.318C265.17 25.082 264.882 24.122 264.306 23.438C263.742 22.754 262.878 22.412 261.714 22.412C260.85 22.412 260.046 22.61 259.302 23.006C258.57 23.402 257.88 23.942 257.232 24.626V38H253.362V11.36H257.232V21.818ZM285.584 26.75C285.584 26.102 285.488 25.502 285.296 24.95C285.116 24.386 284.846 23.9 284.486 23.492C284.126 23.072 283.676 22.748 283.136 22.52C282.608 22.28 281.996 22.16 281.3 22.16C279.896 22.16 278.792 22.562 277.988 23.366C277.184 24.17 276.674 25.298 276.458 26.75H285.584ZM276.35 29.126C276.398 30.17 276.56 31.076 276.836 31.844C277.112 32.6 277.478 33.23 277.934 33.734C278.402 34.238 278.954 34.616 279.59 34.868C280.238 35.108 280.958 35.228 281.75 35.228C282.506 35.228 283.16 35.144 283.712 34.976C284.264 34.796 284.744 34.604 285.152 34.4C285.56 34.184 285.908 33.992 286.196 33.824C286.484 33.644 286.748 33.554 286.988 33.554C287.3 33.554 287.54 33.674 287.708 33.914L288.806 35.336C288.35 35.876 287.834 36.332 287.258 36.704C286.682 37.076 286.07 37.382 285.422 37.622C284.774 37.85 284.108 38.012 283.424 38.108C282.74 38.216 282.074 38.27 281.426 38.27C280.154 38.27 278.972 38.06 277.88 37.64C276.8 37.208 275.858 36.578 275.054 35.75C274.262 34.922 273.638 33.896 273.182 32.672C272.738 31.448 272.516 30.038 272.516 28.442C272.516 27.17 272.714 25.982 273.11 24.878C273.518 23.774 274.094 22.814 274.838 21.998C275.594 21.182 276.506 20.54 277.574 20.072C278.654 19.592 279.872 19.352 281.228 19.352C282.356 19.352 283.4 19.538 284.36 19.91C285.32 20.27 286.148 20.804 286.844 21.512C287.54 22.22 288.08 23.09 288.464 24.122C288.86 25.142 289.058 26.306 289.058 27.614C289.058 28.214 288.992 28.616 288.86 28.82C288.728 29.024 288.488 29.126 288.14 29.126H276.35ZM296.321 23.042C296.897 21.878 297.593 20.966 298.409 20.306C299.225 19.634 300.203 19.298 301.343 19.298C301.739 19.298 302.111 19.346 302.459 19.442C302.807 19.526 303.119 19.658 303.395 19.838L303.125 22.754C303.077 22.958 302.999 23.102 302.891 23.186C302.795 23.258 302.663 23.294 302.495 23.294C302.315 23.294 302.057 23.264 301.721 23.204C301.385 23.132 301.031 23.096 300.659 23.096C300.119 23.096 299.639 23.174 299.219 23.33C298.811 23.486 298.439 23.714 298.103 24.014C297.779 24.314 297.491 24.68 297.239 25.112C296.987 25.544 296.753 26.036 296.537 26.588V38H292.667V19.64H294.917C295.325 19.64 295.607 19.718 295.763 19.874C295.919 20.018 296.027 20.276 296.087 20.648L296.321 23.042Z" fill="#2CB1BC"/>
<rect width="50" height="50" rx="7" fill="#2CB1BC"/>
<path d="M37.06 24.5V36.2C35.5933 37.28 34.0267 38.0733 32.36 38.58C30.7067 39.0733 28.9333 39.32 27.04 39.32C24.68 39.32 22.54 38.9533 20.62 38.22C18.7133 37.4867 17.08 36.4667 15.72 35.16C14.3733 33.8533 13.3333 32.2933 12.6 30.48C11.8667 28.6667 11.5 26.6867 11.5 24.54C11.5 22.3667 11.8533 20.3733 12.56 18.56C13.2667 16.7467 14.2667 15.1867 15.56 13.88C16.8667 12.5733 18.4467 11.56 20.3 10.84C22.1533 10.12 24.2333 9.76 26.54 9.76C27.7133 9.76 28.8067 9.85333 29.82 10.04C30.8467 10.2267 31.7933 10.4867 32.66 10.82C33.54 11.14 34.34 11.5333 35.06 12C35.78 12.4667 36.44 12.98 37.04 13.54L35.5 15.98C35.26 16.3667 34.9467 16.6067 34.56 16.7C34.1733 16.78 33.7533 16.68 33.3 16.4C32.86 16.1467 32.42 15.8933 31.98 15.64C31.54 15.3867 31.0467 15.1667 30.5 14.98C29.9667 14.7933 29.36 14.64 28.68 14.52C28.0133 14.4 27.24 14.34 26.36 14.34C24.9333 14.34 23.64 14.58 22.48 15.06C21.3333 15.54 20.3533 16.2267 19.54 17.12C18.7267 18.0133 18.1 19.0867 17.66 20.34C17.22 21.5933 17 22.9933 17 24.54C17 26.1933 17.2333 27.6733 17.7 28.98C18.18 30.2733 18.8467 31.3733 19.7 32.28C20.5667 33.1733 21.6067 33.86 22.82 34.34C24.0333 34.8067 25.3867 35.04 26.88 35.04C27.9467 35.04 28.9 34.9267 29.74 34.7C30.58 34.4733 31.4 34.1667 32.2 33.78V28.54H28.56C28.2133 28.54 27.94 28.4467 27.74 28.26C27.5533 28.06 27.46 27.82 27.46 27.54V24.5H37.06Z" fill="white"/>
</svg>
